<?xml version="1.0" encoding="UTF-8" standalone="no"?>
<svg
   xmlns:dc="http://purl.org/dc/elements/1.1/"
   xmlns:cc="http://creativecommons.org/ns#"
   xmlns:rdf="http://www.w3.org/1999/02/22-rdf-syntax-ns#"
   xmlns:svg="http://www.w3.org/2000/svg"
   xmlns="http://www.w3.org/2000/svg"
   id="svg134"
   viewBox="0, 0, 128, 128"
   height="128"
   width="128"
   y="0px"
   x="0px"
   version="1.1">
  <metadata
     id="metadata138">
    <rdf:RDF>
      <cc:Work
         rdf:about="">
        <dc:format>image/svg+xml</dc:format>
        <dc:type
           rdf:resource="http://purl.org/dc/dcmitype/StillImage" />
        <dc:title></dc:title>
      </cc:Work>
    </rdf:RDF>
  </metadata>
  <g
     id="Background">
    <rect
       id="rect117"
       fill-opacity="0"
       fill="#000000"
       height="128"
       width="128"
       y="0"
       x="0" />
  </g>
  <g
     id="g130">
    <path
       id="path120"
       d="M18.092,6 L109.903,6 C116.552,6 122,11.441 122,18.096 L122,109.902 C122,116.559 116.552,122 109.903,122 L18.092,122 C11.436,122 6,116.559 6,109.902 L6,18.096 C6,11.441 11.436,6 18.092,6"
       fill="#737370" />
    <g
       style="fill:#82d1f5;fill-opacity:1"
       id="g2440"
       transform="matrix(0.3762,0,0,0.3762,9.7674753,8.6827721)">
      <path
         style="fill:#82d1f5;fill-opacity:1"
         id="path2420"
         d="m 288.831,137.06 c -1.528,-3.119 -4.699,-5.096 -8.172,-5.096 H 263.482 C 262.719,64.424 207.55,9.713 139.833,9.713 c -8.284,0 -15,6.716 -15,15 0,8.284 6.716,15 15,15 51.175,0 92.888,41.253 93.649,92.251 H 216.34 c -3.473,0 -6.643,1.977 -8.172,5.096 -1.528,3.119 -1.148,6.836 0.98,9.58 l 32.159,41.481 c 1.724,2.223 4.379,3.524 7.192,3.524 2.813,0 5.468,-1.301 7.192,-3.524 L 287.85,146.64 c 2.129,-2.745 2.509,-6.462 0.981,-9.58 z" />
      <path
         style="fill:#82d1f5;fill-opacity:1"
         id="path2422"
         d="m 139.833,231.38 c -8.284,0 -15,6.716 -15,15 v 18.666 c 0,8.284 6.716,15 15,15 8.284,0 15,-6.716 15,-15 V 246.38 c 0,-8.284 -6.716,-15 -15,-15 z" />
      <path
         style="fill:#82d1f5;fill-opacity:1"
         id="path2424"
         d="m 73.76,55.771 c 2.778,4.811 7.82,7.502 13.004,7.502 2.545,0 5.125,-0.649 7.487,-2.013 7.174,-4.143 9.632,-13.316 5.489,-20.491 L 90.406,24.604 C 86.264,17.43 77.089,14.971 69.915,19.115 62.741,23.257 60.283,32.431 64.426,39.606 Z" />
      <path
         style="fill:#82d1f5;fill-opacity:1"
         id="path2426"
         d="m 205.906,224.656 c -4.143,-7.174 -13.317,-9.633 -20.491,-5.489 -7.174,4.143 -9.632,13.316 -5.489,20.491 l 9.334,16.165 c 2.778,4.811 7.82,7.502 13.004,7.502 2.545,0 5.125,-0.648 7.487,-2.013 7.174,-4.142 9.632,-13.316 5.489,-20.491 z" />
      <path
         style="fill:#82d1f5;fill-opacity:1"
         id="path2428"
         d="m 24.224,90.786 16.165,9.334 c 2.363,1.364 4.941,2.013 7.487,2.013 5.183,0 10.226,-2.69 13.004,-7.502 4.142,-7.175 1.684,-16.349 -5.489,-20.491 L 39.226,64.806 C 32.052,60.665 22.877,63.12 18.735,70.295 14.592,77.47 17.05,86.644 24.224,90.786 Z" />
      <path
         style="fill:#82d1f5;fill-opacity:1"
         id="path2430"
         d="m 48.666,140.213 c 0,-8.284 -6.716,-15 -15,-15 H 15 c -8.284,0 -15,6.716 -15,15 0,8.284 6.716,15 15,15 h 18.666 c 8.284,0 15,-6.716 15,-15 z" />
      <path
         style="fill:#82d1f5;fill-opacity:1"
         id="path2432"
         d="m 60.88,185.795 c -4.143,-7.174 -13.317,-9.633 -20.491,-5.489 l -16.165,9.334 c -7.174,4.143 -9.632,13.316 -5.489,20.491 2.778,4.812 7.82,7.502 13.004,7.502 2.545,0 5.125,-0.648 7.487,-2.013 l 16.165,-9.334 c 7.173,-4.142 9.631,-13.316 5.489,-20.491 z" />
      <path
         style="fill:#82d1f5;fill-opacity:1"
         id="path2434"
         d="m 94.251,219.166 c -7.175,-4.142 -16.348,-1.686 -20.491,5.489 l -9.334,16.165 c -4.143,7.175 -1.685,16.349 5.489,20.491 2.363,1.364 4.941,2.013 7.487,2.013 5.183,0 10.226,-2.69 13.004,-7.502 l 9.334,-16.165 c 4.143,-7.174 1.685,-16.348 -5.489,-20.491 z" />
      <path
         style="fill:#82d1f5;fill-opacity:1"
         id="path2436"
         d="m 131.174,169.864 c 0,-4.626 -3.764,-8.39 -8.39,-8.39 h -17.051 c 0.139,-0.164 0.282,-0.328 0.428,-0.493 1.114,-1.254 3.841,-3.874 8.107,-7.785 4.473,-4.105 7.493,-7.179 9.232,-9.398 2.621,-3.336 4.571,-6.593 5.794,-9.679 1.247,-3.145 1.88,-6.498 1.88,-9.967 0,-6.223 -2.254,-11.507 -6.699,-15.705 -4.416,-4.164 -10.495,-6.274 -18.071,-6.274 -6.884,0 -12.731,1.802 -17.377,5.356 -2.803,2.146 -4.961,5.119 -6.415,8.839 -0.982,2.513 -0.728,5.388 0.68,7.689 1.408,2.302 3.852,3.836 6.537,4.105 0.299,0.03 0.597,0.045 0.891,0.045 3.779,0 7.149,-2.403 8.387,-5.979 0.388,-1.121 0.901,-2.012 1.527,-2.65 1.318,-1.343 3.093,-1.997 5.428,-1.997 2.373,0 4.146,0.618 5.418,1.889 1.269,1.269 1.886,3.12 1.886,5.66 0,2.359 -0.843,4.819 -2.505,7.314 -0.891,1.305 -3.554,4.36 -11.108,11.398 -7.912,7.341 -13.089,13.113 -15.823,17.643 -1.93,3.195 -3.338,6.573 -4.187,10.04 -0.399,1.632 -0.032,3.326 1.007,4.649 1.038,1.321 2.596,2.079 4.276,2.079 h 37.758 c 4.627,0.001 8.39,-3.763 8.39,-8.389 z" />
      <path
         style="fill:#82d1f5;fill-opacity:1"
         id="path2438"
         d="m 180.779,169.594 v -5.787 h 0.865 c 4.437,0 8.047,-3.61 8.047,-8.047 0,-4.437 -3.61,-8.047 -8.047,-8.047 h -0.865 v -40.105 c 0,-2.997 -2.439,-5.436 -5.436,-5.436 h -6.306 c -1.797,0 -3.475,0.886 -4.489,2.37 L 135.38,147.24 c -0.851,1.246 -1.301,2.703 -1.301,4.212 v 6.919 c 0,2.997 2.439,5.436 5.436,5.436 h 23.945 v 5.787 c 0,4.775 3.885,8.66 8.66,8.66 4.774,0 8.659,-3.885 8.659,-8.66 z M 163.46,147.713 h -10.748 l 10.748,-15.978 z" />
    </g>
  </g>
  <defs
     id="defs132" />
</svg>
